<svg width="64" height="64" viewBox="0 0 64 64" fill="none" xmlns="http://www.w3.org/2000/svg">
<rect width="64" height="64" rx="16" fill="#DDF1FC"/>
<path d="M21.3333 33.3333H29.3333C30.0667 33.3333 30.6667 32.7333 30.6667 32V21.3333C30.6667 20.6 30.0667 20 29.3333 20H21.3333C20.6 20 20 20.6 20 21.3333V32C20 32.7333 20.6 33.3333 21.3333 33.3333ZM21.3333 44H29.3333C30.0667 44 30.6667 43.4 30.6667 42.6667V37.3333C30.6667 36.6 30.0667 36 29.3333 36H21.3333C20.6 36 20 36.6 20 37.3333V42.6667C20 43.4 20.6 44 21.3333 44ZM34.6667 44H42.6667C43.4 44 44 43.4 44 42.6667V32C44 31.2667 43.4 30.6667 42.6667 30.6667H34.6667C33.9333 30.6667 33.3333 31.2667 33.3333 32V42.6667C33.3333 43.4 33.9333 44 34.6667 44ZM33.3333 21.3333V26.6667C33.3333 27.4 33.9333 28 34.6667 28H42.6667C43.4 28 44 27.4 44 26.6667V21.3333C44 20.6 43.4 20 42.6667 20H34.6667C33.9333 20 33.3333 20.6 33.3333 21.3333Z" fill="#319EF1"/>
</svg>
